PathFileType	4	(X/Y/Z)	5_2_6_p0_0-644.trc
DataRate	CameraRate	NumFrames	NumMarkers	Units	OrigDataRate	OrigDataStartFrame	OrigNumFrames
60.0	60.0	7	27	m	60.0	0	645
Frame#	Time	RHip			RKnee			RAnkle			RBigToe			RSmallToe			RHeel			LHip			LKnee			LAnkle			LBigToe			LSmallToe			LHeel			Neck			Head			Nose			RShoulder			RElbow			RWrist			RThumb			RIndex			RPinky			LShoulder			LElbow			LWrist			LThumb			LIndex			LPinky			
		X1	Y1	Z1	X2	Y2	Z2	X3	Y3	Z3	X4	Y4	Z4	X5	Y5	Z5	X6	Y6	Z6	X7	Y7	Z7	X8	Y8	Z8	X9	Y9	Z9	X10	Y10	Z10	X11	Y11	Z11	X12	Y12	Z12	X13	Y13	Z13	X14	Y14	Z14	X15	Y15	Z15	X16	Y16	Z16	X17	Y17	Z17	X18	Y18	Z18	X19	Y19	Z19	X20	Y20	Z20	X21	Y21	Z21	X22	Y22	Z22	X23	Y23	Z23	X24	Y24	Z24	X25	Y25	Z25	X26	Y26	Z26	X27	Y27	Z27	
0	0.0	0.4271800136610535	0.5521468148240086	0.8070980466114627	0.401167207637526	0.6420707181332068	1.2377163168234098	0.41407004677647286	0.7619503731772992	1.6609000971609613	0.3726911019452865	0.5412634383858099	1.6576232056607374	0.42416933468238	0.6055126529574041	1.6757106995357627	0.3913029975927352	0.8508208493345772	1.7354766608067613	0.22744686277212914	0.5531713353571981	0.8258542263191472	0.2173513610370752	0.6969537725417633	1.2832009474720458	0.22173952115965692	0.7996508845262744	1.6892436576029772	0.2274176513544049	0.5372543990948763	1.6809085645204314	0.16396889727984812	0.6110465114097087	1.6840071191207533	0.2243127804833277	0.8481147547974986	1.7404924829725057	0.2939161141662937	0.4750223299092087	0.29539034761331223	0.28208297772745966	0.4021653309471985	0.04900018384615574	0.2820214675762021	0.337368635130759	0.19686443324467046	0.4441606953697736	0.5038600222965898	0.35792891388166803	0.5153388285113315	0.5995054884422416	0.5650749322530746	0.4029901423461061	0.4296466217553766	0.6505062470937516	0.3338766524155337	0.32374381335686586	0.6495223227741043	0.32602449856106014	0.356035856112038	0.6880084616769898	0.33244830025356786	0.37609781537578474	0.712248653944855	0.13740868263695388	0.4851610635178839	0.37222392995090875	0.10490032245104143	0.5140785926880013	0.5997879588854094	0.256422851067472	0.36651643134100226	0.6453458094871544	0.35528422264587123	0.3162553898539039	0.6437726721709325	0.36368854038989046	0.3253388741387238	0.6771443171184791	0.32302945934793303	0.38540650101387813	0.7075635118510466
1	0.016666666666666666	0.427178874748933	0.5522009157389386	0.8071638040633418	0.40174665462623643	0.641147160924893	1.241252163056163	0.4132095814014783	0.7634991946854263	1.6656585603561143	0.37566943442989703	0.5561662640088079	1.6665257296137868	0.42630890509749825	0.6180279868445994	1.6804067667700597	0.3905075281967033	0.8525493727020138	1.7406437272293163	0.23347440410926018	0.5398503797946649	0.8233000201106023	0.22540967388248317	0.6967323635495263	1.2818799364823696	0.2206676693592561	0.8011093632197389	1.6940330261923553	0.2263475580901897	0.5385346270525229	1.6856171342797142	0.16387493695730276	0.6108529570999511	1.6839915263189178	0.22423986700525675	0.8480763534940364	1.74034347124441	0.29402567268387964	0.4747761561346374	0.2952973686824232	0.2835010837423956	0.4129494425193334	0.04076851026797364	0.2819547099084296	0.336749486876661	0.19338402494108045	0.4490361863157846	0.4901562689918588	0.35401835867790804	0.5160216289588901	0.5990354171262838	0.5688849786195495	0.4029795671749187	0.4302195333837514	0.6506980401148194	0.29013553007868614	0.41711060534422906	0.646567676146051	0.3252239878827266	0.3570597302339277	0.6849816532249892	0.3316609788023482	0.37613816293171626	0.7123085515500042	0.1439732171157128	0.471834886418232	0.37605481380542866	0.10108813369304509	0.5112455534425995	0.6026712568511134	0.2527520998398535	0.3659931178511113	0.648822037611742	0.3462505817044527	0.32658275854868135	0.6417545042822306	0.3628581505844215	0.32594591646659965	0.6738826753410284	0.31760550020048156	0.39803197253614764	0.7093339583405801
2	0.03333333333333333	0.4272563258731567	0.5523378822658129	0.807166173735835	0.4017899290679497	0.641076798821257	1.2413137845516113	0.41217710171992555	0.7604726166052147	1.6603806382921285	0.3756552852712481	0.5564664222047097	1.6665582270532615	0.42614542961898333	0.6177645196983778	1.6801639194588884	0.39075971644675783	0.8524397564669606	1.740639705702085	0.22748847523247065	0.5531275522217166	0.8259028674345279	0.2254397452432695	0.6969025281588199	1.282138459154121	0.22069488065369772	0.8009634688132823	1.694015024726638	0.22383395295664232	0.5501119848847609	1.6908060679258266	0.1700427146645708	0.5961906423361035	1.6772041702761624	0.22238893443306826	0.8467552330912209	1.7413706037118846	0.29928639203151863	0.46189931825579417	0.2953537666023563	0.2876108491773316	0.41536558112547833	0.04354604982149938	0.2818167934914088	0.33691717627992956	0.1932777240250058	0.44907765976187786	0.48998127065663766	0.3541502093387229	0.5156834890161026	0.5987198335381462	0.5617453325939594	0.4078290580990162	0.42832605470534313	0.6434568451917146	0.29028801924458525	0.41721399652078545	0.6465848617969082	0.3296364121482448	0.3470746355962208	0.6799892192947463	0.33190997976799524	0.3748093717177284	0.7063349072706214	0.14267818126563242	0.45898082220992936	0.3764470567381671	0.09403069293294702	0.5259582412777395	0.599973575805409	0.24263651634091327	0.37421857064380154	0.6469129607282552	0.33922871841205277	0.3122677349471258	0.6339059706816207	0.36114842433536765	0.3344627836635575	0.6662924393170416	0.3177647475000644	0.39695886857918894	0.7058664193523014
3	0.05	0.43115627938442663	0.555192614841088	0.8110298330786796	0.4011003669793514	0.6422067452221214	1.2377705262789467	0.4113603072829682	0.762188757014761	1.6563389892001048	0.3757040252998284	0.556723186325071	1.6666349134538831	0.4262265150915737	0.6183255083305812	1.6803926703476812	0.3909106625359292	0.8526040121193518	1.74066647173171	0.22685954277114367	0.5541962877306525	0.8301280703755398	0.22354050794099029	0.6818480991497949	1.27863747458843	0.22075429558392887	0.8007969538205046	1.6940903959949718	0.22222616102673048	0.5357362494211523	1.685102996502779	0.16914279714641448	0.5973603057180745	1.6821000714047445	0.22335751413298177	0.8496487112485159	1.7459939206989576	0.2994754871675985	0.46180447968323524	0.295347676969897	0.28761177780671826	0.4154992983466589	0.04354174695338491	0.281444522236684	0.3373036863515112	0.18981616742112956	0.45593273584978544	0.5041997336120542	0.35696525729873907	0.5204860541379821	0.5841775044939956	0.5610222461584405	0.40318370284869864	0.4250270103276233	0.6395042703425372	0.34072779829186073	0.3106426605806985	0.6329512274547097	0.3400561652305518	0.33246668324055606	0.6741047676098179	0.34309310596213005	0.34612284969512846	0.6943236238249714	0.1441021646695558	0.47158212561601837	0.37623089701397056	0.09325565189541433	0.522350933254818	0.5943125412173198	0.24659706472208137	0.34858031212124546	0.6399715055937345	0.3414978248298056	0.28625377977466376	0.6231747386798152	0.3515522094274801	0.30868918084046276	0.655741952173608	0.3229935101416169	0.38336287871413505	0.7031607400344131
4	0.06666666666666667	0.42756198305821524	0.5522140278022623	0.8148521994312093	0.4017308520313598	0.6411922069939082	1.2413572708158491	0.41212602392562525	0.7608018710018988	1.6604801022554234	0.37579774606736194	0.5569300570364439	1.6666427414448641	0.42391863669308844	0.6275225199346622	1.684295784030219	0.3907590367012124	0.8531457713479762	1.7408593961346102	0.23279932061258432	0.5406237448530091	0.8274390226910459	0.22204497445131108	0.6802184381260201	1.2775749159208323	0.22151324681332582	0.7993087774154645	1.697869489605461	0.22220664192464928	0.5358512186905154	1.68527734209792	0.16912127384502584	0.5973702404766388	1.682116578078323	0.22239989853753786	0.8466839261484864	1.741335774046367	0.3032886194063359	0.46318542742599095	0.2948945615216438	0.28774837048411184	0.4153715688598809	0.04372551928296259	0.281532078276615	0.33735654116211095	0.18981772300934432	0.45170711020770427	0.5030480734705389	0.3573156502979821	0.5202740291022739	0.5852765228940272	0.5644195487127005	0.4073200343250163	0.42555296751582367	0.6390288034173909	0.340819423670812	0.31053492046320885	0.6226929465670271	0.34008176504648924	0.3324043835903478	0.6738015154628292	0.34214547038986387	0.3584376085426627	0.6954983199951863	0.14296123376812275	0.45887731500533163	0.37667184962245936	0.09310484518643924	0.5222314375037732	0.5942337792934045	0.25062087519354803	0.3499855035401267	0.6390315242587314	0.34084162498939885	0.2973348890963761	0.6228842125274907	0.35897515956153775	0.31223728445062693	0.6550754469902137	0.3214531392295047	0.3694886213112189	0.6987057738464331
5	0.08333333333333333	0.42688512089031405	0.5504103235607035	0.8108780220026103	0.4017527049783405	0.6412342054989028	1.2413887377293686	0.4121007694370937	0.7607643123462383	1.660506344546408	0.3757652806425436	0.5569933206696159	1.666828552504828	0.4239307463389074	0.6275568511459744	1.6843922525118538	0.3907769976706158	0.8531318457949375	1.7408567526237497	0.23326990747830642	0.5399683395914918	0.823634190701758	0.2253200262127077	0.6967949925165868	1.2822799266502214	0.22067657743413005	0.8008280737187178	1.6940031373955828	0.2222107000404475	0.5359004636219105	1.6853303198185932	0.16906784425008525	0.5974530249180996	1.6821060608904808	0.22243472315099222	0.8464927767246951	1.741292924999919	0.3033024957727198	0.46330605722600143	0.2949480701830196	0.2859372093534061	0.4048889097503846	0.04867530348368425	0.28161051102573786	0.33733392239630605	0.18990398733739064	0.4516875728075769	0.5032091171328162	0.3574012177395222	0.5156008746072293	0.5996537145824866	0.565717627175904	0.4024739896590743	0.4255954220097506	0.6354265342638055	0.34000920784102007	0.3148431948053374	0.6290395065947786	0.3292186253113854	0.35739253267977583	0.677501395433585	0.33253395368914074	0.3720605048320175	0.6982722440029665	0.1432427526995804	0.4586939800713835	0.3769714155214677	0.08658075676910248	0.5368825697127568	0.5952968818196929	0.24494627654841258	0.3625039547851294	0.6406910455994086	0.3432871807117082	0.28398599736987135	0.6245220208013811	0.35106369401114124	0.28608794756715045	0.6431585179989987	0.31533098518019886	0.38366846355592704	0.7039062549263394
6	0.1	0.4265808496812531	0.5502758875092457	0.803136500573474	0.4017540017772763	0.641239279468991	1.241443633973215	0.4121761759236292	0.7605943866398992	1.6604793981299477	0.37567395536435316	0.5566007635034055	1.6667921104237522	0.4262497869255074	0.6180270876588256	1.6802980597772394	0.3908689817370602	0.8524633628410561	1.740622177937031	0.23331192536057824	0.5400834701952393	0.8236273521811435	0.21913039733388096	0.7118954477734534	1.2869790399487286	0.22077697909400382	0.8009018076831923	1.694036922447219	0.22833262100857543	0.5522928557045825	1.691112717643844	0.16911470183149419	0.5974898064263177	1.682164624173091	0.2289101495837304	0.8284025661274155	1.7335166381682048	0.3033222575097954	0.4632377438578548	0.295019232854999	0.28796703590285405	0.4158815721262893	0.047240608966679996	0.2820693097134641	0.33699303122805796	0.19340695945468217	0.4516547282389057	0.5042549750939337	0.3609138743223583	0.5153700864473065	0.6008239452507796	0.5693363656308003	0.40208205658623725	0.42634860401032443	0.6384244628020107	0.33408402557549666	0.3265836129601918	0.6336263349743446	0.3186910495863106	0.3701826713480415	0.6733005257032364	0.3319984351393538	0.3722079331433664	0.6986187099446658	0.14317724124263265	0.45823548989177443	0.37676611739127563	0.08570509994152455	0.5270616725856182	0.5970392472051432	0.23926504744773863	0.37478443211099677	0.6422464395777822	0.3299784899138073	0.2947706279153943	0.622908831536591	0.3395811046310203	0.3046599837777829	0.6448535314045374	0.31543090668644	0.3833894026677917	0.7005509511797476
